<svg width="25" height="20" viewBox="0 0 25 20" fill="none" xmlns="http://www.w3.org/2000/svg">
<path d="M22.8762 15.3359C23.134 15.8945 23.4778 16.4531 23.9075 17.0117C24.2083 17.4414 24.4231 17.6562 24.509 17.6992C24.638 17.8711 24.7239 18.043 24.7669 18.2148C24.7669 18.4297 24.7669 18.6016 24.6809 18.7734C24.595 18.9453 24.4661 19.1172 24.2942 19.2031C24.1223 19.332 23.9505 19.375 23.7786 19.375C21.888 19.375 20.1262 18.8164 18.4075 17.6992C17.5481 17.9141 16.6887 18 15.8294 18C13.9817 18 12.3059 17.6133 10.845 16.8398C9.38404 16.0664 8.30983 15.0781 7.62233 13.7891C7.19264 13.7461 6.76295 13.6602 6.37623 13.5742C4.65748 14.6914 2.89576 15.25 1.00514 15.25C0.790294 15.25 0.618419 15.207 0.446544 15.0781C0.274669 14.9922 0.188732 14.8203 0.102794 14.6484C0.0168568 14.4766 -0.0261119 14.3047 0.0168568 14.0898C0.0598256 13.918 0.145763 13.7461 0.274669 13.6172C0.403576 13.4883 0.618419 13.2305 0.876232 12.8867C1.26295 12.3281 1.6067 11.7695 1.90748 11.2109C0.618419 10.0078 0.0168568 8.58984 0.0168568 7C0.0168568 5.79688 0.403576 4.63672 1.21998 3.5625C1.99342 2.53125 3.06764 1.67188 4.44264 1.07031C5.81764 0.46875 7.32154 0.125 8.95436 0.125C10.759 0.125 12.4348 0.511719 13.9387 1.28516C15.3997 2.05859 16.5169 3.08984 17.2044 4.33594C18.5794 4.50781 19.8684 4.9375 21.0286 5.58203C22.1887 6.22656 23.0911 7.04297 23.7786 7.98828C24.4231 8.97656 24.7669 10.0078 24.7669 11.125C24.7669 12.7148 24.1223 14.1328 22.8762 15.3359ZM5.98951 11.3828L6.84889 11.5547C7.53639 11.7266 8.22389 11.8125 8.95436 11.8125C10.1575 11.8125 11.3176 11.5977 12.3489 11.168C13.3801 10.7383 14.2395 10.1367 14.884 9.40625C15.4856 8.67578 15.8294 7.85938 15.8294 7C15.8294 6.14062 15.4856 5.36719 14.884 4.63672C14.2395 3.90625 13.3801 3.30469 12.3489 2.875C11.3176 2.44531 10.1575 2.1875 8.95436 2.1875C7.70826 2.1875 6.54811 2.44531 5.51686 2.875C4.48561 3.30469 3.62623 3.90625 3.02467 4.63672C2.38014 5.36719 2.07936 6.14062 2.07936 7C2.07936 8.03125 2.50904 8.93359 3.36842 9.75L4.44264 10.7812L3.75514 12.1562L3.41139 12.7578C4.01295 12.5859 4.65748 12.2852 5.25904 11.8555L5.98951 11.3828ZM21.4153 13.875C22.2747 13.0586 22.7044 12.1562 22.7044 11.125C22.7044 10.0938 22.2317 9.19141 21.3294 8.33203C20.384 7.47266 19.2239 6.91406 17.8489 6.57031L17.8919 7C17.8919 8.16016 17.5481 9.23438 16.8606 10.1797C16.1731 11.168 15.2708 11.9844 14.1106 12.6289C12.9075 13.2734 11.6184 13.6602 10.2005 13.7891C10.802 14.4766 11.6184 14.9922 12.6067 15.3789C13.595 15.7656 14.6692 15.9375 15.8294 15.9375C16.5169 15.9375 17.2473 15.8516 17.9348 15.6797L18.7942 15.5078L19.5247 15.9805C20.1262 16.4102 20.7278 16.7109 21.3723 16.8828L21.0286 16.2383L20.384 14.9062L21.4153 13.875Z" fill="url(#paint0_linear_5149_60)"/>
<defs>
<linearGradient id="paint0_linear_5149_60" x1="7.41759e-07" y1="10.135" x2="17.8454" y2="-0.978786" gradientUnits="userSpaceOnUse">
<stop stop-color="#FF5A56"/>
<stop offset="1" stop-color="#FF9A42"/>
</linearGradient>
</defs>
</svg>
