<svg width="55" height="72" viewBox="0 0 55 72" fill="none" xmlns="http://www.w3.org/2000/svg">
<path d="M54.5 17.1562C54.5 16.3125 54.0781 15.4688 53.5156 14.7656L39.7344 0.984375C39.0312 0.421875 38.1875 0 37.3438 0H36.5V18H54.5V17.1562ZM35.375 22.5H54.5V68.625C54.5 69.6094 54.0781 70.4531 53.5156 71.0156C52.8125 71.7188 51.9688 72 51.125 72H3.875C2.89062 72 2.04688 71.7188 1.48438 71.0156C0.78125 70.4531 0.5 69.6094 0.5 68.625V3.375C0.5 2.53125 0.78125 1.6875 1.48438 0.984375C2.04688 0.421875 2.89062 0 3.875 0H32V19.125C32 20.1094 32.2812 20.9531 32.9844 21.5156C33.5469 22.2188 34.3906 22.5 35.375 22.5ZM16.3906 24.75C14.4219 24.75 12.875 25.4531 11.6094 26.7188C10.2031 28.125 9.64062 29.6719 9.64062 31.5C9.64062 33.4688 10.2031 35.0156 11.6094 36.2812C12.875 37.6875 14.4219 38.25 16.25 38.25C18.0781 38.25 19.625 37.6875 21.0312 36.2812C22.4375 35.0156 23.1406 33.4688 23.1406 31.5C23.1406 29.6719 22.4375 28.125 21.0312 26.7188C19.625 25.4531 18.0781 24.75 16.3906 24.75ZM45.6406 58.5V42.75L40.0156 37.125C39.7344 36.8438 39.3125 36.7031 38.8906 36.7031C38.3281 36.7031 37.9062 36.8438 37.625 37.125L23.1406 51.75L17.5156 46.125C17.0938 45.8438 16.6719 45.7031 16.25 45.7031C15.8281 45.7031 15.5469 45.8438 15.2656 46.125L9.64062 51.75V58.5H45.6406Z" fill="url(#paint0_linear_62_218)"/>
<defs>
<linearGradient id="paint0_linear_62_218" x1="0.500002" y1="37.44" x2="48.2116" y2="20.1187" gradientUnits="userSpaceOnUse">
<stop stop-color="#FF5A56"/>
<stop offset="1" stop-color="#FF9A42"/>
</linearGradient>
</defs>
</svg>
