<svg width="51" height="51" viewBox="0 0 51 51" fill="none" xmlns="http://www.w3.org/2000/svg">
<g id="left-btn">
<circle id="Ellipse" cx="25.5" cy="25.5" r="25.5" transform="rotate(-180 25.5 25.5)" fill="black" fill-opacity="0.5"/>
<path id="left-icon" d="M23.2172 25.5216L33.0119 15.1725C33.1838 15 33.3556 15 33.5274 15C33.6993 15 33.8711 15 33.8711 15.1725C34.043 15.345 34.043 15.6899 33.8711 15.8624L24.9356 25.3491L33.8711 35.0082C34.043 35.1807 34.043 35.6982 33.8711 35.8706C33.6993 36.0431 33.1838 36.0431 33.0119 35.8706L23.2172 25.5216ZM25.7947 35.8706C26.1384 36.0431 26.4821 36.0431 26.6539 35.8706C26.8258 35.6982 26.8258 35.1807 26.6539 35.0082L17.7184 25.5216L26.6539 16.0349C26.8258 15.8624 26.8258 15.345 26.6539 15.1725C26.4821 15 26.3103 15 26.3103 15C26.1384 15 25.9666 15 25.7947 15.1725L16 25.5216L25.7947 35.8706Z" fill="white"/>
</g>
</svg>
