<svg width="11" height="14" viewBox="0 0 11 14" fill="none" xmlns="http://www.w3.org/2000/svg">
<path d="M4.70312 13.7266C4.8125 13.918 5.00391 14 5.25 14C5.46875 14 5.66016 13.918 5.79688 13.7266L7.62891 11.1016C8.53125 9.78906 9.13281 8.91406 9.43359 8.44922C9.84375 7.79297 10.1172 7.24609 10.2812 6.80859C10.418 6.37109 10.5 5.85156 10.5 5.25C10.5 4.32031 10.2539 3.44531 9.78906 2.625C9.29688 1.83203 8.66797 1.20312 7.875 0.710938C7.05469 0.246094 6.17969 0 5.25 0C4.29297 0 3.41797 0.246094 2.625 0.710938C1.80469 1.20312 1.17578 1.83203 0.710938 2.625C0.21875 3.44531 0 4.32031 0 5.25C0 5.85156 0.0546875 6.37109 0.21875 6.80859C0.355469 7.24609 0.628906 7.79297 1.06641 8.44922C1.33984 8.91406 1.94141 9.78906 2.87109 11.1016C3.60938 12.168 4.21094 13.043 4.70312 13.7266ZM5.25 7.4375C4.64844 7.4375 4.12891 7.24609 3.69141 6.80859C3.25391 6.37109 3.0625 5.85156 3.0625 5.25C3.0625 4.64844 3.25391 4.15625 3.69141 3.71875C4.12891 3.28125 4.64844 3.0625 5.25 3.0625C5.85156 3.0625 6.34375 3.28125 6.78125 3.71875C7.21875 4.15625 7.4375 4.64844 7.4375 5.25C7.4375 5.85156 7.21875 6.37109 6.78125 6.80859C6.34375 7.24609 5.85156 7.4375 5.25 7.4375Z" fill="#666666"/>
</svg>
