<svg width="51" height="51" viewBox="0 0 51 51" fill="none" xmlns="http://www.w3.org/2000/svg">
<g id="right-btn">
<circle id="Ellipse" cx="25.5" cy="25.5" r="25.5" fill="black" fill-opacity="0.5"/>
<path id="right-icon" d="M29.7828 25.4784L19.9881 35.8275C19.8162 36 19.6444 36 19.4726 36C19.3007 36 19.1289 36 19.1289 35.8275C18.957 35.655 18.957 35.3101 19.1289 35.1376L28.0644 25.6509L19.1289 15.9918C18.957 15.8193 18.957 15.3018 19.1289 15.1294C19.3007 14.9569 19.8162 14.9569 19.9881 15.1294L29.7828 25.4784ZM27.2053 15.1294C26.8616 14.9569 26.5179 14.9569 26.3461 15.1294C26.1742 15.3018 26.1742 15.8193 26.3461 15.9918L35.2816 25.4784L26.3461 34.9651C26.1742 35.1376 26.1742 35.655 26.3461 35.8275C26.5179 36 26.6897 36 26.6897 36C26.8616 36 27.0334 36 27.2053 35.8275L37 25.4784L27.2053 15.1294Z" fill="white"/>
</g>
</svg>
