<svg width="24" height="23" viewBox="0 0 24 23" fill="none" xmlns="http://www.w3.org/2000/svg">
<path d="M22.6875 8.09766C23.0312 8.18359 23.332 8.35547 23.5469 8.61328C23.7617 8.91406 23.8477 9.21484 23.8477 9.55859C23.8477 9.90234 23.7188 10.2031 23.4609 10.4609L18.9062 14.8867L19.9805 21.1602C20.0234 21.5039 19.9375 21.8477 19.7656 22.1484C19.5938 22.4492 19.3359 22.6211 18.9922 22.707C18.6484 22.793 18.3047 22.75 18.0039 22.5781L12.375 19.6562L6.74609 22.5781C6.40234 22.75 6.10156 22.793 5.75781 22.707C5.41406 22.6211 5.11328 22.4492 4.94141 22.1484C4.76953 21.8477 4.68359 21.5039 4.76953 21.1602L5.84375 14.8867L1.28906 10.4609C1.03125 10.2031 0.859375 9.90234 0.859375 9.55859C0.859375 9.21484 0.945312 8.91406 1.16016 8.61328C1.375 8.35547 1.67578 8.18359 2.0625 8.09766L8.33594 7.19531L11.1289 1.52344C11.3008 1.17969 11.5156 0.964844 11.8594 0.835938C12.2031 0.75 12.5039 0.75 12.8477 0.835938C13.1914 0.964844 13.4492 1.17969 13.6211 1.52344L16.4141 7.19531L22.6875 8.09766ZM16.7148 14.1562L21.0117 9.94531L15.0391 9.08594L12.375 3.67188L9.71094 9.08594L3.73828 9.94531L8.03516 14.1562L7.04688 20.1289L12.375 17.293L17.7031 20.1289L16.7148 14.1562Z" fill="url(#paint0_linear_62_1003)"/>
<defs>
<linearGradient id="paint0_linear_62_1003" x1="0.859376" y1="12.2003" x2="19.1573" y2="2.93618" gradientUnits="userSpaceOnUse">
<stop stop-color="#FF5A56"/>
<stop offset="1" stop-color="#FF9A42"/>
</linearGradient>
</defs>
</svg>
