<svg width="14" height="15" viewBox="0 0 14 15" fill="none" xmlns="http://www.w3.org/2000/svg">
<path d="M2.84375 6.875C3.00781 6.875 3.17188 6.95703 3.30859 7.06641C3.41797 7.20312 3.5 7.36719 3.5 7.53125V14.0938C3.5 14.2852 3.41797 14.4492 3.30859 14.5586C3.17188 14.6953 3.00781 14.75 2.84375 14.75H0.65625C0.464844 14.75 0.300781 14.6953 0.191406 14.5586C0.0546875 14.4492 0 14.2852 0 14.0938V7.53125C0 7.36719 0.0546875 7.20312 0.191406 7.06641C0.300781 6.95703 0.464844 6.875 0.65625 6.875H2.84375ZM1.75 13.6562C1.91406 13.6562 2.07812 13.6016 2.21484 13.4648C2.32422 13.3555 2.40625 13.1914 2.40625 13C2.40625 12.8359 2.32422 12.6719 2.21484 12.5352C2.07812 12.4258 1.91406 12.3438 1.75 12.3438C1.55859 12.3438 1.39453 12.4258 1.28516 12.5352C1.14844 12.6719 1.09375 12.8359 1.09375 13C1.09375 13.1914 1.14844 13.3555 1.28516 13.4648C1.39453 13.6016 1.55859 13.6562 1.75 13.6562ZM10.5 2.96484C10.5 2.08984 10.2539 1.48828 9.76172 1.10547C9.43359 0.886719 9.02344 0.75 8.53125 0.75C8.28516 0.75 8.06641 0.96875 7.90234 1.35156C7.79297 1.57031 7.71094 1.89844 7.60156 2.30859V2.33594C7.49219 2.74609 7.41016 3.04688 7.35547 3.21094C7.24609 3.53906 7.08203 3.78516 6.91797 3.94922C6.61719 4.22266 6.26172 4.6875 5.82422 5.31641C5.27734 6.08203 4.83984 6.65625 4.48438 7.03906C4.40234 7.09375 4.375 7.17578 4.375 7.25781V13.1094C4.375 13.2188 4.40234 13.3008 4.45703 13.3555C4.51172 13.4102 4.59375 13.4375 4.70312 13.4375C5.00391 13.4375 5.46875 13.6016 6.09766 13.875C6.72656 14.1484 7.21875 14.3398 7.60156 14.4492C8.20312 14.668 8.80469 14.75 9.40625 14.75H9.48828C10.2812 14.75 10.8828 14.7227 11.2656 14.6406C11.8945 14.5312 12.332 14.3125 12.5781 13.957C12.7969 13.6289 12.8789 13.2188 12.7695 12.7266C12.9883 12.4805 13.125 12.1523 13.2344 11.7695C13.3164 11.3867 13.3164 11.0312 13.207 10.6758C13.4258 10.375 13.5625 10.0195 13.6172 9.60938C13.6445 9.22656 13.5898 8.84375 13.4531 8.48828H13.4805C13.6172 8.32422 13.7266 8.13281 13.8359 7.88672C13.9453 7.66797 14 7.42188 14 7.14844C14 6.73828 13.8359 6.38281 13.5078 6.05469C13.1797 5.72656 12.7969 5.5625 12.3594 5.5625H9.59766C9.625 5.39844 9.73438 5.09766 9.95312 4.71484C10.1172 4.38672 10.2539 4.14062 10.3359 3.94922C10.4453 3.62109 10.5 3.29297 10.5 2.96484Z" fill="#00BE3B"/>
</svg>
