<svg width="14" height="15" viewBox="0 0 14 15" fill="none" xmlns="http://www.w3.org/2000/svg">
<path d="M0 2.28125C0 2.11719 0.0546875 1.95312 0.191406 1.81641C0.300781 1.70703 0.464844 1.625 0.65625 1.625H2.84375C3.00781 1.625 3.17188 1.70703 3.30859 1.81641C3.41797 1.95312 3.5 2.11719 3.5 2.28125V8.84375C3.5 9.03516 3.41797 9.19922 3.30859 9.30859C3.17188 9.44531 3.00781 9.5 2.84375 9.5H0.65625C0.464844 9.5 0.300781 9.44531 0.191406 9.30859C0.0546875 9.19922 0 9.03516 0 8.84375V2.28125ZM1.09375 7.75C1.09375 7.94141 1.14844 8.10547 1.28516 8.21484C1.39453 8.35156 1.55859 8.40625 1.75 8.40625C1.91406 8.40625 2.07812 8.35156 2.21484 8.21484C2.32422 8.10547 2.40625 7.94141 2.40625 7.75C2.40625 7.58594 2.32422 7.42188 2.21484 7.28516C2.07812 7.17578 1.91406 7.09375 1.75 7.09375C1.55859 7.09375 1.39453 7.17578 1.28516 7.28516C1.14844 7.42188 1.09375 7.58594 1.09375 7.75ZM8.53125 14.75C9.02344 14.75 9.43359 14.6406 9.76172 14.3945C10.2539 14.0391 10.5 13.4102 10.5 12.5352C10.5 12.207 10.4453 11.8789 10.3359 11.5508C10.2539 11.3867 10.1172 11.1133 9.95312 10.7852C9.73438 10.4023 9.625 10.1289 9.59766 9.9375H12.3594C12.7969 9.9375 13.1797 9.80078 13.5078 9.47266C13.8359 9.14453 14 8.78906 14 8.35156C14 8.10547 13.9453 7.85938 13.8359 7.61328C13.7266 7.39453 13.6172 7.17578 13.4805 7.01172H13.4531C13.5898 6.68359 13.6445 6.30078 13.6172 5.89062C13.5625 5.50781 13.4258 5.15234 13.207 4.82422C13.3164 4.49609 13.3164 4.11328 13.2344 3.73047C13.125 3.34766 12.9883 3.04688 12.7695 2.77344C12.8789 2.30859 12.7969 1.89844 12.5781 1.54297C12.332 1.21484 11.8945 0.96875 11.2656 0.859375C10.8828 0.804688 10.2812 0.75 9.48828 0.75H9.40625C8.80469 0.75 8.20312 0.859375 7.60156 1.05078C7.21875 1.16016 6.72656 1.37891 6.09766 1.65234C5.46875 1.92578 5.00391 2.0625 4.70312 2.0625C4.59375 2.0625 4.51172 2.11719 4.45703 2.17188C4.40234 2.22656 4.375 2.30859 4.375 2.39062V8.24219C4.375 8.35156 4.40234 8.40625 4.48438 8.46094C4.83984 8.84375 5.27734 9.41797 5.82422 10.1836C6.26172 10.8398 6.61719 11.2773 6.91797 11.5508C7.08203 11.7422 7.24609 11.9883 7.35547 12.2891C7.41016 12.4805 7.49219 12.7812 7.60156 13.1641V13.1914C7.71094 13.6289 7.79297 13.9297 7.90234 14.1484C8.06641 14.5586 8.28516 14.75 8.53125 14.75Z" fill="#FF5656"/>
</svg>
