<svg width="22" height="22" viewBox="0 0 22 22" fill="none" xmlns="http://www.w3.org/2000/svg">
<path d="M11 0.09375C12.8906 0.09375 14.6953 0.609375 16.3281 1.55469C17.9609 2.5 19.25 3.78906 20.1953 5.42188C21.1406 7.05469 21.6562 8.85938 21.6562 10.75C21.6562 12.6836 21.1406 14.4453 20.1953 16.0781C19.25 17.7109 17.9609 19.043 16.3281 19.9883C14.6953 20.9336 12.8906 21.4062 11 21.4062C9.06641 21.4062 7.30469 20.9336 5.67188 19.9883C4.03906 19.043 2.70703 17.7109 1.76172 16.0781C0.816406 14.4453 0.34375 12.6836 0.34375 10.75C0.34375 8.85938 0.816406 7.05469 1.76172 5.42188C2.70703 3.78906 4.03906 2.5 5.67188 1.55469C7.30469 0.609375 9.06641 0.09375 11 0.09375ZM11 4.21875C9.96875 4.21875 9.06641 4.60547 8.33594 5.33594C7.5625 6.10938 7.21875 6.96875 7.21875 8C7.21875 9.03125 7.5625 9.93359 8.33594 10.6641C9.06641 11.4375 9.96875 11.7812 11 11.7812C12.0312 11.7812 12.8906 11.4375 13.6641 10.6641C14.3945 9.93359 14.7812 9.03125 14.7812 8C14.7812 6.96875 14.3945 6.10938 13.6641 5.33594C12.8906 4.60547 12.0312 4.21875 11 4.21875ZM11 19C12.2031 19 13.3633 18.7422 14.4805 18.2266C15.5977 17.7109 16.543 17.0234 17.3164 16.0781C16.8867 15.3047 16.2852 14.7031 15.5547 14.2305C14.7812 13.7578 13.9648 13.5 13.0625 13.5C12.9766 13.5 12.8477 13.543 12.7617 13.543C12.1602 13.7578 11.5586 13.8438 11 13.8438C10.3984 13.8438 9.83984 13.7578 9.23828 13.543C9.10938 13.543 9.02344 13.5 8.9375 13.5C7.99219 13.5 7.17578 13.7578 6.44531 14.2305C5.67188 14.7031 5.11328 15.3047 4.68359 16.0781C5.45703 17.0234 6.35938 17.7109 7.47656 18.2266C8.59375 18.7422 9.75391 19 11 19Z" fill="#999999"/>
</svg>
