<svg width="28" height="20" viewBox="0 0 28 20" fill="none" xmlns="http://www.w3.org/2000/svg">
<path d="M8.25 9.75C7.39062 9.75 6.57422 9.53516 5.84375 9.10547C5.07031 8.67578 4.51172 8.11719 4.08203 7.34375C3.65234 6.61328 3.4375 5.79688 3.4375 4.9375C3.4375 4.07812 3.65234 3.30469 4.08203 2.53125C4.51172 1.80078 5.07031 1.19922 5.84375 0.769531C6.57422 0.339844 7.39062 0.125 8.25 0.125C9.10938 0.125 9.88281 0.339844 10.6562 0.769531C11.3867 1.19922 11.9883 1.80078 12.418 2.53125C12.8477 3.30469 13.0625 4.07812 13.0625 4.9375C13.0625 5.79688 12.8477 6.61328 12.418 7.34375C11.9883 8.11719 11.3867 8.67578 10.6562 9.10547C9.88281 9.53516 9.10938 9.75 8.25 9.75ZM11.5586 11.125C12.418 11.125 13.2344 11.3828 14.0078 11.8125C14.7812 12.2422 15.3828 12.8438 15.8125 13.6172C16.2422 14.3906 16.5 15.207 16.5 16.0664V17.3125C16.5 17.9141 16.2852 18.3867 15.8984 18.7734C15.4688 19.2031 14.9961 19.375 14.4375 19.375H2.0625C1.46094 19.375 0.988281 19.2031 0.601562 18.7734C0.171875 18.3867 0 17.9141 0 17.3125V16.0664C0 15.207 0.214844 14.3906 0.644531 13.6172C1.07422 12.8438 1.67578 12.2422 2.44922 11.8125C3.22266 11.3828 4.03906 11.125 4.94141 11.125H5.28516C6.23047 11.5977 7.21875 11.8125 8.25 11.8125C9.23828 11.8125 10.2266 11.5977 11.2148 11.125H11.5586ZM20.625 9.75C19.4648 9.75 18.4766 9.36328 17.7031 8.54688C16.8867 7.77344 16.5 6.78516 16.5 5.625C16.5 4.50781 16.8867 3.51953 17.7031 2.70312C18.4766 1.92969 19.4648 1.5 20.625 1.5C21.7422 1.5 22.7305 1.92969 23.5469 2.70312C24.3203 3.51953 24.75 4.50781 24.75 5.625C24.75 6.78516 24.3203 7.77344 23.5469 8.54688C22.7305 9.36328 21.7422 9.75 20.625 9.75ZM22.6875 11.125C23.5469 11.125 24.3203 11.3398 25.0938 11.7695C25.8242 12.1992 26.4258 12.8008 26.8555 13.5312C27.2852 14.3047 27.5 15.0781 27.5 15.9375C27.5 16.5391 27.2852 17.0117 26.8984 17.3984C26.4688 17.8281 25.9961 18 25.4375 18H17.832L17.875 16.0664C17.875 15.293 17.7031 14.5195 17.4023 13.7891C17.1016 13.0586 16.6719 12.3711 16.1562 11.7695C16.9297 11.3398 17.7031 11.125 18.5625 11.125H18.7344C19.3789 11.3828 20.0234 11.4688 20.625 11.4688C21.2266 11.4688 21.8281 11.3828 22.5156 11.125H22.6875Z" fill="url(#paint0_linear_5149_121)"/>
<defs>
<linearGradient id="paint0_linear_5149_121" x1="8.23616e-07" y1="10.135" x2="18.6039" y2="-2.72976" gradientUnits="userSpaceOnUse">
<stop stop-color="#FF5A56"/>
<stop offset="1" stop-color="#FF9A42"/>
</linearGradient>
</defs>
</svg>
